<?xml version="1.0" standalone="no"?>
<!DOCTYPE svg PUBLIC "-//W3C//DTD SVG 20010904//EN"
 "http://www.w3.org/TR/2001/REC-SVG-20010904/DTD/svg10.dtd">
<svg version="1.0" xmlns="http://www.w3.org/2000/svg"
 width="552.000000pt" height="552.000000pt" viewBox="0 0 552.000000 552.000000"
 preserveAspectRatio="xMidYMid meet">
<metadata>
Created by potrace 1.15, written by Peter Selinger 2001-2017
</metadata>
<g transform="translate(0.000000,552.000000) scale(0.100000,-0.100000)"
fill="#000000" stroke="none">
<path d="M1930 4526 c-73 -16 -119 -41 -130 -71 -29 -75 78 -146 260 -174 146
-23 590 -38 925 -32 200 4 350 -26 350 -68 0 -25 -52 -32 -285 -41 -315 -13
-807 -48 -920 -66 -318 -50 -570 -171 -570 -275 0 -59 94 -80 366 -80 278 0
343 13 575 122 137 64 274 104 408 119 118 14 368 12 411 -3 73 -25 60 -110
-25 -169 -42 -29 -70 -37 -220 -63 -114 -20 -176 -49 -244 -114 -30 -28 -58
-51 -62 -51 -14 0 -112 -89 -161 -147 -30 -35 -75 -111 -114 -188 -35 -71 -83
-166 -106 -210 -24 -44 -58 -113 -77 -153 -32 -70 -78 -122 -107 -122 -8 0
-50 18 -92 39 -104 52 -138 58 -195 33 -49 -22 -54 -29 -98 -135 -34 -86 -35
-92 -9 -157 42 -106 17 -210 -51 -210 -43 0 -69 31 -69 83 -1 112 -32 157
-128 187 -52 16 -72 18 -110 10 -72 -16 -173 -57 -238 -97 -33 -19 -88 -49
-124 -65 -78 -35 -125 -79 -190 -174 -62 -90 -67 -96 -355 -359 -279 -255
-355 -332 -429 -435 -98 -135 -108 -162 -104 -260 5 -120 50 -192 123 -200
111 -12 151 11 211 118 74 133 160 249 334 451 216 251 434 467 507 505 99 50
118 37 202 -137 102 -207 195 -316 334 -385 282 -142 512 -148 806 -19 131 57
204 57 412 4 162 -41 185 -42 299 -4 88 30 267 31 320 3 19 -10 82 -66 140
-125 58 -58 141 -133 184 -166 73 -55 82 -59 139 -63 85 -5 273 51 415 123 62
31 131 58 164 64 66 12 263 84 498 184 292 123 340 152 390 241 36 61 37 92 8
136 -35 51 -80 70 -168 70 -100 0 -172 -21 -474 -139 -293 -115 -503 -185
-604 -202 -62 -10 -78 -10 -115 5 -24 9 -56 30 -72 46 -25 26 -27 34 -22 82 3
29 11 79 18 110 10 46 10 74 0 151 -9 63 -11 129 -6 194 l7 100 -32 26 c-55
47 -116 59 -345 67 -122 4 -224 12 -242 19 -71 27 -50 79 61 154 45 31 113 83
151 116 39 34 88 73 109 88 l40 28 220 -2 c122 -2 258 -5 304 -9 l82 -6 0 -64
c0 -36 6 -80 14 -98 19 -45 88 -86 144 -86 41 0 42 -1 42 -35 0 -43 19 -57
120 -84 167 -45 440 -65 471 -34 14 14 145 663 155 765 l7 68 -37 33 c-28 27
-36 41 -36 69 0 29 -7 42 -35 67 -42 36 -70 45 -127 39 -24 -3 -90 1 -148 9
-141 18 -215 6 -272 -44 -20 -18 -12 -40 29 -85 37 -39 27 -52 -38 -49 -106 5
-172 -46 -204 -156 -12 -41 -22 -56 -43 -65 -31 -14 -475 -18 -534 -5 -48 10
-68 46 -68 122 0 106 39 153 194 230 84 43 92 45 176 45 138 0 187 13 238 63
95 92 106 139 56 240 -48 97 -207 272 -282 311 -33 17 -156 53 -467 136 -82
23 -222 66 -310 96 -290 100 -512 146 -915 188 -344 36 -518 43 -610 22z
m2768 -1406 c4 -31 -63 -353 -81 -389 -10 -20 -19 -26 -42 -24 -33 3 -45 17
-45 58 0 21 9 37 30 55 25 21 33 38 45 103 19 99 19 142 0 160 -13 13 -12 18
6 42 17 20 29 25 53 23 25 -2 32 -8 34 -28z"/>
</g>
</svg>
